<svg xmlns="http://www.w3.org/2000/svg" id="Layer_1" data-name="Layer 1" viewBox="0 0 512 512"><defs><style>.cls-1{fill:#6d4135;}</style></defs><title>tiles-2-view-outline</title><path class="cls-1" d="M490.67,234.67h-192a21.33,21.33,0,0,1-21.33-21.33v-192A21.33,21.33,0,0,1,298.67,0h192A21.33,21.33,0,0,1,512,21.33v192A21.33,21.33,0,0,1,490.67,234.67ZM320,192H469.33V42.67H320Z"/><path class="cls-1" d="M490.67,512H21.33A21.33,21.33,0,0,1,0,490.67v-192a21.33,21.33,0,0,1,21.33-21.33H490.67A21.33,21.33,0,0,1,512,298.67v192A21.33,21.33,0,0,1,490.67,512Zm-448-42.67H469.33V320H42.67Z"/><path class="cls-1" d="M213.33,234.67h-192A21.33,21.33,0,0,1,0,213.33v-192A21.33,21.33,0,0,1,21.33,0h192a21.33,21.33,0,0,1,21.33,21.33v192A21.33,21.33,0,0,1,213.33,234.67ZM42.67,192H192V42.67H42.67Z"/></svg>