<svg xmlns="http://www.w3.org/2000/svg" viewBox="0 0 100 100" id="shape"><path fill="#DC6E79" d="M88 2H12C6.477 2 2 6.477 2 12v76c0 5.523 4.477 10 10 10h76c5.523 0 10-4.477 10-10V12c0-5.523-4.477-10-10-10z"></path><path fill="#A1334B" d="M98 88V73.592L50.753 26.345a.971.971 0 0 0-.76-.34c-.36 0-.69.2-.87.52l-20.78 37.96 1.53 1.53c-2.32.71-3.87 1.68-3.87 2.98 0 .55.28 1.05.78 1.49L54.298 98H88c5.523 0 10-4.477 10-10z"></path><g fill="#FFF"><path d="M71.577 64.45c-3.077-5.496-6.172-11.277-9.185-16.91-3.774-7.058-7.678-14.355-11.52-21.038a1.016 1.016 0 0 0-.878-.501 1 1 0 0 0-.866.52l-20.79 37.963c4.196-1.648 11.417-2.485 21.662-2.485 10.176 0 17.368.826 21.577 2.452z"></path><path d="M50 64c-2.45 0-24 .14-24 5s21.55 5 24 5c2.46 0 24-.14 24-5s-21.54-5-24-5z"></path></g></svg>