<svg width="46" height="21" viewBox="0 0 46 21" fill="none" xmlns="http://www.w3.org/2000/svg">
<rect width="46" height="21" fill="#67B044"/>
<rect width="46" height="21" fill="white" fill-opacity="0.8"/>
<path d="M8.098 7.054L8.896 8.37L11.36 6.886V16H13.082V5.038H11.444L8.098 7.054ZM15.2088 10.512C15.2088 12.122 15.6288 13.452 16.4828 14.53C17.3368 15.594 18.4428 16.126 19.8008 16.126C21.1588 16.126 22.2788 15.594 23.1328 14.516C23.9868 13.438 24.4208 12.094 24.4208 10.484C24.4208 8.888 24.0008 7.558 23.1468 6.494C22.2928 5.416 21.1868 4.884 19.8288 4.884C18.4708 4.884 17.3648 5.43 16.4968 6.508C15.6428 7.586 15.2088 8.916 15.2088 10.512ZM22.6428 10.512C22.6428 11.646 22.3908 12.612 21.8728 13.382C21.3548 14.152 20.6828 14.544 19.8288 14.544C18.9748 14.544 18.2888 14.152 17.7708 13.368C17.2528 12.584 17.0008 11.618 17.0008 10.484C17.0008 9.35 17.2528 8.398 17.7568 7.628C18.2748 6.858 18.9468 6.466 19.8008 6.466C20.6548 6.466 21.3408 6.858 21.8588 7.642C22.3768 8.426 22.6428 9.378 22.6428 10.512ZM30.6182 7.404C30.6182 6.718 30.3802 6.13 29.8902 5.654C29.4002 5.164 28.8262 4.926 28.1402 4.926C27.4542 4.926 26.8802 5.164 26.3902 5.654C25.9142 6.144 25.6762 6.718 25.6762 7.404C25.6762 8.09 25.9142 8.664 26.3902 9.154C26.8802 9.644 27.4542 9.882 28.1402 9.882C28.8262 9.882 29.4002 9.644 29.8902 9.154C30.3802 8.664 30.6182 8.09 30.6182 7.404ZM35.6722 5.038H34.0342L26.8942 16H28.5462L35.6722 5.038ZM28.1402 6.34C28.7422 6.34 29.2182 6.83 29.2182 7.404C29.2182 7.978 28.7422 8.468 28.1402 8.468C27.5662 8.468 27.0762 8.006 27.0762 7.404C27.0762 6.802 27.5662 6.34 28.1402 6.34ZM34.4262 11.128C33.7402 11.128 33.1522 11.366 32.6622 11.856C32.1862 12.346 31.9482 12.92 31.9482 13.606C31.9482 14.292 32.1862 14.866 32.6762 15.356C33.1662 15.832 33.7402 16.07 34.4262 16.07C35.1122 16.07 35.6862 15.832 36.1622 15.356C36.6522 14.866 36.8902 14.292 36.8902 13.606C36.8902 12.92 36.6522 12.346 36.1622 11.856C35.6862 11.366 35.1122 11.128 34.4262 11.128ZM35.1822 14.362C34.7762 14.768 34.0902 14.768 33.6562 14.362C33.2502 13.928 33.2502 13.27 33.6562 12.864C34.0902 12.43 34.7762 12.43 35.1822 12.864C35.5882 13.27 35.5882 13.928 35.1822 14.362Z" fill="#67B044"/>
</svg>
